<?xml version="1.0" encoding="UTF-8"?>
<svg version="1.1" xmlns="http://www.w3.org/2000/svg" width="363" height="378">
<path d="M0 0 C16.73987059 11.73299038 25.65219394 39.34208527 30.37109375 58.31640625 C32.06900523 68.26131633 32.06900523 68.26131633 29.31640625 72.73828125 C26.94912325 75.04967562 24.54021366 77.14442727 21.9375 79.1875 C17.99946002 82.34106986 14.20823373 85.57906128 10.5 89 C6.98565879 92.23597755 3.41609555 95.32634807 -0.3125 98.3125 C-4.72366832 101.86786391 -8.87809954 105.61947964 -13 109.5 C-17.97601917 114.1843052 -23.0753782 118.60558957 -28.41015625 122.8828125 C-31.93913396 125.76773847 -35.30199421 128.81885558 -38.671875 131.88671875 C-40.73932309 133.76337885 -42.82886604 135.60744573 -44.9375 137.4375 C-48.11221597 140.19784541 -51.21537436 143.02792558 -54.3125 145.875 C-58.8517496 150.01925965 -63.53458296 153.92578398 -68.31640625 157.78515625 C-71.80978472 160.66833761 -75.13828184 163.7141564 -78.484375 166.765625 C-81.01330295 169.01181566 -83.61049914 171.13531218 -86.25 173.25 C-90.67932193 176.82849172 -94.85704918 180.59995835 -99 184.5 C-103.97949056 189.18753346 -109.08179947 193.61231888 -114.421875 197.890625 C-117.0242629 200.01985146 -119.51575502 202.23449357 -122 204.5 C-125.37460948 207.57653672 -128.81815864 210.51118217 -132.375 213.375 C-136.38824643 216.6195119 -140.22431438 219.98730958 -144 223.5 C-148.66909157 227.84302504 -153.48304819 231.93643855 -158.46484375 235.921875 C-160.83820832 237.8673757 -163.07019379 239.90661356 -165.3125 242 C-167.69944619 244.08492442 -169.1749587 245.06861125 -172.1875 246.25 C-175.38800224 245.96551091 -176.47207161 245.1644311 -178.5390625 242.76171875 C-179.02117187 242.18035156 -179.50328125 241.59898437 -180 241 C-180.64710938 240.30519531 -181.29421875 239.61039063 -181.9609375 238.89453125 C-187.59827326 232.8319228 -192.67870396 226.40391963 -197.64355469 219.7890625 C-199.04758942 217.93723267 -200.47822595 216.10850601 -201.9140625 214.28125 C-209.100337 205.05075518 -215.14117853 195.44796459 -220.77880859 185.203125 C-221.86477976 183.24394791 -222.98076716 181.30747742 -224.11328125 179.375 C-232.04610691 165.38524734 -246.66663593 139.4442549 -244 123 C-240.7033633 119.08447797 -236.66990047 116.04560198 -232.625 112.9375 C-231.3901026 111.97853692 -230.15574741 111.0188753 -228.921875 110.05859375 C-228.28314453 109.56214355 -227.64441406 109.06569336 -226.98632812 108.55419922 C-222.95258605 105.39800428 -218.96660653 102.18172476 -214.97509766 98.97241211 C-213.8159936 98.04200808 -212.65238302 97.11717786 -211.48339844 96.19921875 C-209.8723299 94.93088418 -209.8723299 94.93088418 -208.0078125 93.09375 C-206 92 -206 92 -202.65234375 91.84765625 C-197.58135448 93.44759404 -195.65457279 96.26306081 -192.5625 100.4375 C-191.99611816 101.16888184 -191.42973633 101.90026367 -190.84619141 102.65380859 C-189.72111847 104.1079517 -188.60337594 105.56780095 -187.49365234 107.03369141 C-185.66820471 109.43678969 -183.77776826 111.78282958 -181.875 114.125 C-178.08371713 118.87425156 -174.33471386 123.65681132 -170.59130859 128.44384766 C-167.86925351 132.51421039 -167.86925351 132.51421039 -163.7578125 134.33984375 C-159.94464803 133.86994954 -158.59753631 132.23221098 -155.875 129.5625 C-154.90724103 128.63562064 -153.93712614 127.71119575 -152.96484375 126.7890625 C-152.4735498 126.32016602 -151.98225586 125.85126953 -151.47607422 125.36816406 C-149.22051555 123.27750069 -146.83495623 121.36226628 -144.4375 119.4375 C-139.99006552 115.84801032 -135.74593009 112.09171544 -131.5234375 108.2421875 C-128.94917642 105.95484096 -126.30710511 103.78451729 -123.625 101.625 C-119.07139288 97.94363311 -114.76417484 94.07225527 -110.48095703 90.08642578 C-106.39357285 86.30523247 -102.11965827 82.80317332 -97.78125 79.3125 C-94.75980664 76.80028867 -91.87559922 74.17597543 -89 71.5 C-84.39344575 67.21364389 -79.62872727 63.20247989 -74.7265625 59.25390625 C-70.87844889 56.07287251 -67.21568518 52.70440386 -63.5390625 49.328125 C-59.02743881 45.19131313 -54.40014509 41.19389177 -49.74609375 37.21875 C-48.53902687 36.1875417 -47.33199663 35.15629052 -46.125 34.125 C-45.51640137 33.60526611 -44.90780273 33.08553223 -44.28076172 32.55004883 C-40.74357043 29.52094405 -37.25598946 26.44843697 -33.8125 23.3125 C-29.58449064 19.4720005 -25.19593872 15.87026059 -20.75390625 12.28125 C-17.05917209 9.22064752 -13.52350056 6.00085811 -9.99609375 2.75 C-6.65432579 -0.17976917 -4.41219484 -0.42308718 0 0 Z " fill="#163571" transform="translate(293,67)"/>
<path d="M0 0 C0.75055664 0.18046875 1.50111328 0.3609375 2.27441406 0.546875 C13.3069015 3.28665015 23.05321443 7.54815424 33 13 C33.64163086 13.34498535 34.28326172 13.6899707 34.94433594 14.04541016 C53.02368153 23.79209647 53.02368153 23.79209647 54.875 29.875 C52.74002235 37.49992016 45.69205277 42.21237863 39.6796875 46.86328125 C35.81926833 49.9414872 32.22194626 53.28326193 28.58984375 56.625 C25.77209233 59.2090013 22.90277208 61.7247537 20.015625 64.23046875 C17.71392236 66.25114956 15.45235621 68.31312618 13.1875 70.375 C9.74621795 73.48528851 6.23678702 76.46478312 2.625 79.375 C-1.38826284 82.61952517 -5.22415384 85.98747183 -9 89.5 C-13.52911037 93.7094852 -18.20267516 97.67372505 -23.015625 101.5546875 C-31.83758999 108.7831562 -40.3649625 116.37985131 -48.8203125 124.03125 C-55.29350305 129.87800275 -61.93297247 135.52889229 -68.61328125 141.13671875 C-70.86455891 143.02929413 -73.08733346 144.94900381 -75.29296875 146.89453125 C-75.82180664 147.3536792 -76.35064453 147.81282715 -76.89550781 148.28588867 C-78.35190841 149.55066975 -79.79929746 150.82580611 -81.24609375 152.1015625 C-84.32280303 154.22252804 -86.27755347 154.88827582 -90 155 C-95.60608768 152.47129662 -99.21858273 146.13141524 -102.62109375 141.27734375 C-105.46997888 137.27590395 -108.58007825 133.48934698 -111.6875 129.6875 C-112.23422363 129.01799316 -112.78094727 128.34848633 -113.34423828 127.65869141 C-116.39299636 123.93046016 -116.39299636 123.93046016 -119.50634766 120.25634766 C-123 116.19987689 -123 116.19987689 -123 114 C-127.81115759 113.6443927 -130.07395172 114.24259838 -133.875 117.1875 C-134.82117188 117.91324219 -135.76734375 118.63898438 -136.7421875 119.38671875 C-140.51792085 122.39576389 -144.25851521 125.4485594 -148 128.5 C-150.66291791 130.67133127 -153.32843841 132.83930993 -156 135 C-156.56380371 135.45600586 -157.12760742 135.91201172 -157.70849609 136.38183594 C-159.1874147 137.56405931 -160.68676902 138.72059155 -162.1875 139.875 C-163.00605469 140.51179687 -163.82460937 141.14859375 -164.66796875 141.8046875 C-167 143 -167 143 -169.55078125 142.9453125 C-172.66821273 141.74209333 -174.05204976 140.73777973 -176 138 C-176.38742165 135.31245293 -176.52265125 133.11425092 -176.4375 130.4375 C-176.42283691 129.69153564 -176.40817383 128.94557129 -176.39306641 128.17700195 C-175.10210152 88.62167352 -157.13787178 56.72183769 -128.98583984 29.84228516 C-94.67480901 -1.98843019 -44.29315516 -10.70704281 0 0 Z " fill="#5CF1B3" transform="translate(220,22)"/>
<path d="M0 0 C2.375 1.75 2.375 1.75 4 5 C6.75715536 45.43827858 -24.30810051 93.25072351 -49 123 C-49.68320312 123.8559375 -50.36640625 124.711875 -51.0703125 125.59375 C-65.71140348 143.85575595 -82.4188572 161.73935057 -101 176 C-102.66898854 177.39305625 -104.33553334 178.78904399 -106 180.1875 C-111.18166199 184.40931722 -116.47367164 188.47908036 -121.8125 192.5 C-123.03163086 193.43622192 -123.03163086 193.43622192 -124.27539062 194.39135742 C-132.13653559 200.24752157 -132.13653559 200.24752157 -137 200 C-139.47594204 198.83396918 -141.41435313 197.73251872 -143.625 196.1875 C-144.53523926 195.57660522 -144.53523926 195.57660522 -145.46386719 194.95336914 C-150.64112138 191.40936715 -155.44190922 187.49173963 -160.19921875 183.40234375 C-162.77167535 181.19584332 -165.39409402 179.08850043 -168.0625 177 C-169.71256097 175.67190214 -171.35816807 174.33825746 -173 173 C-174.01191406 172.18402344 -175.02382812 171.36804688 -176.06640625 170.52734375 C-177.08763457 169.66607074 -178.10719855 168.80281999 -179.125 167.9375 C-180.52105469 166.77541016 -180.52105469 166.77541016 -181.9453125 165.58984375 C-184 163 -184 163 -184.5546875 159.50390625 C-183.57794346 153.33391047 -179.59472661 150.46523669 -174.875 146.75 C-171.2185648 143.81808961 -167.6525909 140.84331006 -164.1875 137.6875 C-160.28654517 134.13726193 -156.32336424 130.67454558 -152.3125 127.25 C-138.405543 115.39335519 -138.405543 115.39335519 -124.75 103.25 C-121.45707034 100.26136747 -118.08683231 97.41616395 -114.625 94.625 C-110.07139288 90.94363311 -105.76417484 87.07225527 -101.48095703 83.08642578 C-97.39357285 79.30523247 -93.11965827 75.80317332 -88.78125 72.3125 C-85.22814914 69.35823636 -81.8597632 66.23086576 -78.47827148 63.08374023 C-75.2670095 60.11284372 -71.97372185 57.30038923 -68.5625 54.5625 C-64.37762693 51.19653735 -60.41685602 47.66823983 -56.5 44 C-51.73908666 39.54127805 -46.83532437 35.36202376 -41.74609375 31.27734375 C-38.73679352 28.78172208 -35.86086465 26.16209148 -33 23.5 C-28.38889008 19.21602963 -23.65495907 15.14960907 -18.73828125 11.21484375 C-16.81236198 9.65707452 -14.9161592 8.06219851 -13.04296875 6.44140625 C-12.08003906 5.61511719 -11.11710938 4.78882813 -10.125 3.9375 C-9.26132812 3.18339844 -8.39765625 2.42929688 -7.5078125 1.65234375 C-4.66746726 -0.21909867 -3.3309366 -0.5085826 0 0 Z " fill="#6D90FD" transform="translate(320,168)"/>
<path d="M0 0 C0.99 0.495 0.99 0.495 2 1 C-5.52450795 8.13863574 -13.03241031 15.18842825 -21.13671875 21.671875 C-25.24368041 25.01123264 -29.22240358 28.49215405 -33.21362305 31.96826172 C-38.31976215 36.41501819 -43.45494221 40.82647923 -48.60864258 45.21801758 C-50.8033397 47.09268831 -52.95810376 48.95810376 -55 51 C-58.625 51.125 -58.625 51.125 -62 51 C-62.66 49.02 -63.32 47.04 -64 45 C-63.443125 45.495 -62.88625 45.99 -62.3125 46.5 C-59.4796072 48.33755209 -58.32810337 48.46156178 -55 48 C-52.37487729 46.12869102 -52.37487729 46.12869102 -49.875 43.5625 C-48.90724103 42.63562064 -47.93712614 41.71119575 -46.96484375 40.7890625 C-46.4735498 40.32016602 -45.98225586 39.85126953 -45.47607422 39.36816406 C-43.22051555 37.27750069 -40.83495623 35.36226628 -38.4375 33.4375 C-33.99006552 29.84801032 -29.74593009 26.09171544 -25.5234375 22.2421875 C-22.94917642 19.95484096 -20.30710511 17.78451729 -17.625 15.625 C-11.50421169 10.67758169 -5.74962205 5.36832076 0 0 Z " fill="#A9C4DB" transform="translate(187,153)"/>
<path d="M0 0 C0.66 0.33 1.32 0.66 2 1 C0.04653795 2.67268922 -1.91229814 4.33821581 -3.875 6 C-4.70837891 6.71542969 -4.70837891 6.71542969 -5.55859375 7.4453125 C-9.7734375 11 -9.7734375 11 -12 11 C-12 12.98 -12 14.96 -12 17 C-11.34 17 -10.68 17 -10 17 C-9.36550064 20.25180921 -9.00317148 23.17760312 -9.0625 26.5 C-9.17449744 30.00641059 -9.17449744 30.00641059 -7.9375 33.1875 C-6.9378608 36.18641759 -7.11064733 37.09561052 -8 40 C-8.99082549 37.1911461 -9.96772452 34.37862146 -10.9375 31.5625 C-11.21529297 30.77939453 -11.49308594 29.99628906 -11.77929688 29.18945312 C-13.56576042 23.95920444 -15.19551919 18.5846073 -15 13 C-13.32494971 10.63182546 -12.27115787 9.66421051 -10 8 C-8.22848285 6.5633428 -6.45769625 5.12578445 -4.6875 3.6875 C-3.12736399 2.45533419 -1.56564646 1.22515636 0 0 Z " fill="#82A1C3" transform="translate(64,177)"/>
<path d="M0 0 C0 0.33 0 0.66 0 1 C-1.1238208 0.98952637 -2.2476416 0.97905273 -3.40551758 0.96826172 C-7.62309513 0.93173159 -11.84065905 0.90898084 -16.05834961 0.89013672 C-17.87477988 0.88015368 -19.69119439 0.8665625 -21.50756836 0.84912109 C-37.93439665 -0.04680828 -37.93439665 -0.04680828 -53 5 C-55.48046875 5.1953125 -55.48046875 5.1953125 -58.1875 5.125 C-59.08855469 5.10695313 -59.98960937 5.08890625 -60.91796875 5.0703125 C-61.60503906 5.04710937 -62.29210937 5.02390625 -63 5 C-44.98606921 -4.64654303 -19.57185114 -3.07520431 0 0 Z " fill="#D3F9F4" transform="translate(207,19)"/>
<path d="M0 0 C3.09919679 3.09919679 3.54182977 6.95605411 4.625 11.125 C4.85445313 11.95515625 5.08390625 12.7853125 5.3203125 13.640625 C6.71042719 18.91975102 7.23941442 23.54387148 7 29 C6.67 29 6.34 29 6 29 C6 27.35 6 25.7 6 24 C5.34 24 4.68 24 4 24 C3.92652344 23.11248047 3.92652344 23.11248047 3.8515625 22.20703125 C3.41719304 17.27261434 3.41719304 17.27261434 2 12.5625 C0.42309321 8.52167635 0.31732793 4.30062849 0 0 Z " fill="#8BA1B9" transform="translate(317,108)"/>
<path d="M0 0 C0.66 0.33 1.32 0.66 2 1 C1.57847656 1.39832031 1.15695313 1.79664063 0.72265625 2.20703125 C0.17480469 2.73683594 -0.37304688 3.26664063 -0.9375 3.8125 C-1.75541016 4.59560547 -1.75541016 4.59560547 -2.58984375 5.39453125 C-4.23519092 7.05812198 -4.23519092 7.05812198 -5 10 C-7.42618098 12.22399923 -9.48774106 13.80009407 -12.5625 15 C-15.41474309 16.17015101 -16.95488582 17.72765091 -19 20 C-19.66 19.67 -20.32 19.34 -21 19 C-14.8662703 13.34674579 -8.73398798 7.70146371 -2.42578125 2.2421875 C-1.59556994 1.51888012 -0.7785963 0.7785963 0 0 Z " fill="#AEC2FA" transform="translate(223,247)"/>
<path d="M0 0 C0 0.66 0 1.32 0 2 C-0.83402344 2.23074219 -1.66804688 2.46148438 -2.52734375 2.69921875 C-8.91400044 4.55010551 -14.5174234 6.49220994 -20.09765625 10.14453125 C-22.47310703 11.21275244 -23.5987442 10.87172538 -26 10 C-6.49315068 0 -6.49315068 0 0 0 Z " fill="#BDF5E8" transform="translate(144,24)"/>
<path d="M0 0 C0 0.99 0 1.98 0 3 C-0.66 3.66 -1.32 4.32 -2 5 C-2.268125 5.7425 -2.53625 6.485 -2.8125 7.25 C-4.37272147 10.86314445 -6.31154788 13.11483188 -9 16 C-9.99 16.33 -10.98 16.66 -12 17 C-10.55540661 12.67411378 -8.36311665 9.72505028 -5.4375 6.25 C-4.63183594 5.28578125 -3.82617188 4.3215625 -2.99609375 3.328125 C-1 1 -1 1 0 0 Z " fill="#A4F3DA" transform="translate(77,66)"/>
<path d="M0 0 C-5.445 4.455 -5.445 4.455 -11 9 C-11.66 8.67 -12.32 8.34 -13 8 C-12.07392708 4.29570832 -10.81120807 2.57629659 -7.625 0.625 C-4 -1 -4 -1 0 0 Z " fill="#9AB5F7" transform="translate(214,348)"/>
<path d="M0 0 C0 0.33 0 0.66 0 1 C-0.75925781 1.12117188 -1.51851562 1.24234375 -2.30078125 1.3671875 C-3.79158203 1.61855469 -3.79158203 1.61855469 -5.3125 1.875 C-6.29863281 2.03742187 -7.28476563 2.19984375 -8.30078125 2.3671875 C-11.20059827 2.88085454 -11.20059827 2.88085454 -14 5 C-16.48046875 5.1953125 -16.48046875 5.1953125 -19.1875 5.125 C-20.08855469 5.10695313 -20.98960937 5.08890625 -21.91796875 5.0703125 C-22.60503906 5.04710937 -23.29210937 5.02390625 -24 5 C-16.96333084 1.0622046 -8.00823453 -0.55871404 0 0 Z " fill="#B8F5E7" transform="translate(168,19)"/>
<path d="M0 0 C2 1 2 1 3.0703125 3.72265625 C3.59238281 5.37587891 3.59238281 5.37587891 4.125 7.0625 C4.47820312 8.16722656 4.83140625 9.27195312 5.1953125 10.41015625 C5.46085937 11.26480469 5.72640625 12.11945313 6 13 C1.27820714 11.00613369 0.21821813 8.51565833 -2 4 C-2 3.01 -2 2.02 -2 1 C-1.34 0.67 -0.68 0.34 0 0 Z " fill="#092A64" transform="translate(75,247)"/>
<path d="M0 0 C1.65 0 3.3 0 5 0 C0.87675353 4.25209792 -3.51282966 8.13635705 -8 12 C-8.33 10.68 -8.66 9.36 -9 8 C-8.195625 7.731875 -7.39125 7.46375 -6.5625 7.1875 C-5.716875 6.795625 -4.87125 6.40375 -4 6 C-3.67 5.01 -3.34 4.02 -3 3 C-2.01 3 -1.02 3 0 3 C0 2.01 0 1.02 0 0 Z " fill="#ADF4DA" transform="translate(218,100)"/>
<path d="M0 0 C1.67542976 0.28604898 3.34385343 0.61781233 5 1 C2 4 -1 7 -4 10 C-4.66 9.67 -5.32 9.34 -6 9 C-5.54625 8.4225 -5.0925 7.845 -4.625 7.25 C-3.15732983 5.2178413 -2.08557243 3.24868574 -1 1 C-0.67 0.67 -0.34 0.34 0 0 Z " fill="#7189AE" transform="translate(140,292)"/>
<path d="M0 0 C0.66 0.33 1.32 0.66 2 1 C1.54300722 6.02692063 -0.99241748 9.14896261 -4 13 C-5.47968023 10.04063954 -4.84835797 8.13239866 -4 5 C-1.9375 3.625 -1.9375 3.625 0 3 C0 2.01 0 1.02 0 0 Z " fill="#95AEF5" transform="translate(280,272)"/>
<path d="M0 0 C1.5625 1.8125 1.5625 1.8125 3 4 C2.67 4.99 2.34 5.98 2 7 C2.66 7 3.32 7 4 7 C4.33 8.65 4.66 10.3 5 12 C4.01 12 3.02 12 2 12 C-1.57142857 4.71428571 -1.57142857 4.71428571 0 0 Z " fill="#062560" transform="translate(60,216)"/>
<path d="M0 0 C0.66 0.33 1.32 0.66 2 1 C0.68 3.31 -0.64 5.62 -2 8 C-3.65 8 -5.3 8 -7 8 C-5.50902342 4.2047869 -3.24299151 2.38957269 0 0 Z " fill="#0E2C6A" transform="translate(175,166)"/>
<path d="M0 0 C1.37034881 2.74069761 0.79102071 4.07108548 0 7 C-1.19140625 9.45703125 -1.19140625 9.45703125 -2.5625 11.8125 C-3.01753906 12.60269531 -3.47257812 13.39289063 -3.94140625 14.20703125 C-4.29074219 14.79871094 -4.64007813 15.39039062 -5 16 C-6 14 -6 14 -5.0390625 10.99609375 C-4.57242188 9.82175781 -4.10578125 8.64742187 -3.625 7.4375 C-3.16351563 6.26058594 -2.70203125 5.08367187 -2.2265625 3.87109375 C-1 1 -1 1 0 0 Z " fill="#ADF6DC" transform="translate(57,96)"/>
<path d="M0 0 C3.28465896 2.79196011 5.01321958 6.23196817 7 10 C7 10.66 7 11.32 7 12 C6.34 12 5.68 12 5 12 C5 11.01 5 10.02 5 9 C4.01 9 3.02 9 2 9 C2 7.35 2 5.7 2 4 C1.34 4 0.68 4 0 4 C0 2.68 0 1.36 0 0 Z " fill="#869CBA" transform="translate(305,84)"/>
<path d="M0 0 C0.66 0 1.32 0 2 0 C2.33 0.99 2.66 1.98 3 3 C0.36 4.98 -2.28 6.96 -5 9 C-4.01360177 5.05440706 -3.74165469 4.51318346 -1 2 C-0.67 1.34 -0.34 0.68 0 0 Z " fill="#97B0F8" transform="translate(224,334)"/>
<path d="M0 0 C1.4606285 2.64738916 2 3.89448334 2 7 C2.66 7.33 3.32 7.66 4 8 C4 9.32 4 10.64 4 12 C3.34 12 2.68 12 2 12 C-0.05257931 8.55166676 -1.0632763 6.68338409 -0.6875 2.625 C-0.460625 1.75875 -0.23375 0.8925 0 0 Z " fill="#082A64" transform="translate(66,229)"/>
<path d="M0 0 C1.485 0.99 1.485 0.99 3 2 C3.375 4.9375 3.375 4.9375 3 8 C2.01 8.99 1.02 9.98 0 11 C0 7.37 0 3.74 0 0 Z " fill="#AAF0DB" transform="translate(271,47)"/>
<path d="M0 0 C1.485 0.99 1.485 0.99 3 2 C3.6875 5.625 3.6875 5.625 4 9 C2.68 8.34 1.36 7.68 0 7 C0 4.69 0 2.38 0 0 Z " fill="#07245E" transform="translate(54,200)"/>
<path d="M0 0 C0.33 0.66 0.66 1.32 1 2 C-0.32 3.65 -1.64 5.3 -3 7 C-4.32 6.67 -5.64 6.34 -7 6 C-4.69 4.02 -2.38 2.04 0 0 Z " fill="#A3BAF9" transform="translate(309,173)"/>
<path d="M0 0 C2.31 0 4.62 0 7 0 C7 0.99 7 1.98 7 3 C4.36 3.33 1.72 3.66 -1 4 C-0.67 2.68 -0.34 1.36 0 0 Z " fill="#0D2867" transform="translate(286,69)"/>
<path d="M0 0 C0.66 0.99 1.32 1.98 2 3 C0.71475739 3.86380259 -0.57842419 4.71580369 -1.875 5.5625 C-2.59429687 6.03816406 -3.31359375 6.51382813 -4.0546875 7.00390625 C-4.69664062 7.33261719 -5.33859375 7.66132813 -6 8 C-6.66 7.67 -7.32 7.34 -8 7 C-5.36 4.69 -2.72 2.38 0 0 Z " fill="#A4BCFA" transform="translate(264,212)"/>
<path d="M0 0 C3.33773709 3.64116773 3.97864902 7.28607242 5 12 C2.69857565 10.21825212 1.19965609 8.83695835 0.51171875 5.953125 C0.27676898 3.9753389 0.13248542 1.98728128 0 0 Z " fill="#8DA1BB" transform="translate(312,96)"/>
<path d="M0 0 C3.73884332 2.65654657 5.64978174 4.58110387 7 9 C6.01 9 5.02 9 4 9 C2.47551369 6.0173094 1.06059933 3.181798 0 0 Z " fill="#92A8C5" transform="translate(108,179)"/>
<path d="M0 0 C-1.15173355 2.46800047 -2.04783565 4.04783565 -4 6 C-6.125 5.625 -6.125 5.625 -8 5 C-2.25 0 -2.25 0 0 0 Z " fill="#0A2566" transform="translate(220,130)"/>
<path d="M0 0 C1.65 0.33 3.3 0.66 5 1 C3.35 2.65 1.7 4.3 0 6 C-0.66 5.67 -1.32 5.34 -2 5 C-1.34 3.35 -0.68 1.7 0 0 Z " fill="#A4BBF9" transform="translate(203,351)"/>
<path d="M0 0 C1.32 0.33 2.64 0.66 4 1 C4 2.98 4 4.96 4 7 C2 5.1875 2 5.1875 0 3 C0 2.01 0 1.02 0 0 Z " fill="#0C2D6C" transform="translate(107,296)"/>
<path d="M0 0 C2.0625 0.4375 2.0625 0.4375 4 1 C2.35 2.65 0.7 4.3 -1 6 C-1.042721 4.33388095 -1.04063832 2.66617115 -1 1 C-0.67 0.67 -0.34 0.34 0 0 Z " fill="#9DB5F6" transform="translate(263,295)"/>
<path d="M0 0 C3.37503669 1.1858237 5.64722731 2.27573689 8 5 C6.68 5.33 5.36 5.66 4 6 C3.896875 5.360625 3.79375 4.72125 3.6875 4.0625 C3.460625 3.381875 3.23375 2.70125 3 2 C2.01 1.67 1.02 1.34 0 1 C0 0.67 0 0.34 0 0 Z " fill="#A5F4DC" transform="translate(260,40)"/>
</svg>
